<?xml version="1.0" standalone="no"?>
<svg xmlns="http://www.w3.org/2000/svg" xmlns:xlink="http://www.w3.org/1999/xlink" width="405pt" height="260pt" viewBox="0.00 0.00 404.73 260.00">
<g id="graph0" class="graph" transform="translate(62.327293395996094,250.47425889968872) scale(1)" data-name="G">

<polygon fill="white" stroke="none" points="-4,4 -4,-256 400.73,-256 400.73,4 -4,4" style=""/>
<!-- BigBang -->
<g id="node1" class="node" pointer-events="visible" data-name="BigBang">

<ellipse fill="none" stroke="black" cx="105.72" cy="-234" rx="45.25" ry="18" style=""/>
<text text-anchor="middle" x="105.72" y="-229.8" font-family="Times,serif" font-size="14.00" style="">BigBang</text>
</g>
<!-- BoringOwnable -->
<g id="node2" class="node" pointer-events="visible" data-name="BoringOwnable">

<ellipse fill="none" stroke="black" cx="72.72" cy="-90" rx="72.94" ry="18" style=""/>
<text text-anchor="middle" x="72.72" y="-85.8" font-family="Times,serif" font-size="14.00" style="">BoringOwnable</text>
</g>
<!-- BigBang&#45;&gt;BoringOwnable -->
<g id="edge1" class="edge" data-name="BigBang-&gt;BoringOwnable">

<path fill="none" stroke="black" d="M100.97,-215.87C98.16,-205.51 94.59,-192.03 91.72,-180 86.92,-159.9 82.07,-137.1 78.47,-119.61" style=""/>
<polygon fill="black" stroke="black" points="81.92,-119.03 76.49,-109.93 75.06,-120.43 81.92,-119.03" style=""/>
</g>
<!-- Market -->
<g id="node3" class="node" pointer-events="visible" data-name="Market">

<ellipse fill="none" stroke="black" cx="139.72" cy="-162" rx="38.85" ry="18" style=""/>
<text text-anchor="middle" x="139.72" y="-157.8" font-family="Times,serif" font-size="14.00" style="">Market</text>
</g>
<!-- BigBang&#45;&gt;Market -->
<g id="edge2" class="edge" data-name="BigBang-&gt;Market">

<path fill="none" stroke="black" d="M113.95,-216.05C117.75,-208.23 122.36,-198.75 126.62,-189.98" style=""/>
<polygon fill="black" stroke="black" points="129.69,-191.67 130.91,-181.15 123.39,-188.62 129.69,-191.67" style=""/>
</g>
<!-- Market&#45;&gt;BoringOwnable -->
<g id="edge4" class="edge" data-name="Market-&gt;BoringOwnable">

<path fill="none" stroke="black" d="M124.52,-145.12C116.28,-136.51 105.9,-125.67 96.61,-115.96" style=""/>
<polygon fill="black" stroke="black" points="99.29,-113.69 89.85,-108.89 94.23,-118.54 99.29,-113.69" style=""/>
</g>
<!-- MarketERC20 -->
<g id="node4" class="node" pointer-events="visible" data-name="MarketERC20">

<ellipse fill="none" stroke="black" cx="230.72" cy="-90" rx="67.22" ry="18" style=""/>
<text text-anchor="middle" x="230.72" y="-85.8" font-family="Times,serif" font-size="14.00" style="">MarketERC20</text>
</g>
<!-- Market&#45;&gt;MarketERC20 -->
<g id="edge3" class="edge" data-name="Market-&gt;MarketERC20">

<path fill="none" stroke="black" d="M159.02,-146.15C170.97,-136.96 186.59,-124.95 200.19,-114.48" style=""/>
<polygon fill="black" stroke="black" points="202.23,-117.33 208.02,-108.46 197.96,-111.78 202.23,-117.33" style=""/>
</g>
<!-- IERC20 -->
<g id="node5" class="node" pointer-events="visible" data-name="IERC20">

<ellipse fill="none" stroke="black" cx="101.72" cy="-18" rx="42.88" ry="18" style=""/>
<text text-anchor="middle" x="101.72" y="-13.8" font-family="Times,serif" font-size="14.00" style="">IERC20</text>
</g>
<!-- MarketERC20&#45;&gt;IERC20 -->
<g id="edge5" class="edge" data-name="MarketERC20-&gt;IERC20">

<path fill="none" stroke="black" d="M201.77,-73.29C182.58,-62.88 157.28,-49.15 136.93,-38.1" style=""/>
<polygon fill="black" stroke="black" points="138.88,-35.18 128.42,-33.49 135.54,-41.33 138.88,-35.18" style=""/>
</g>
<!-- IERC20Permit -->
<g id="node6" class="node" pointer-events="visible" data-name="IERC20Permit">

<ellipse fill="none" stroke="black" cx="230.72" cy="-18" rx="68.38" ry="18" style=""/>
<text text-anchor="middle" x="230.72" y="-13.8" font-family="Times,serif" font-size="14.00" style="">IERC20Permit</text>
</g>
<!-- MarketERC20&#45;&gt;IERC20Permit -->
<g id="edge6" class="edge" data-name="MarketERC20-&gt;IERC20Permit">

<path fill="none" stroke="black" d="M230.72,-71.7C230.72,-64.41 230.72,-55.73 230.72,-47.54" style=""/>
<polygon fill="black" stroke="black" points="234.22,-47.62 230.72,-37.62 227.22,-47.62 234.22,-47.62" style=""/>
</g>
<!-- EIP712 -->
<g id="node7" class="node" pointer-events="visible" data-name="EIP712">

<ellipse fill="none" stroke="black" cx="356.72" cy="-18" rx="40.01" ry="18" style=""/>
<text text-anchor="middle" x="356.72" y="-13.8" font-family="Times,serif" font-size="14.00" style="">EIP712</text>
</g>
<!-- MarketERC20&#45;&gt;EIP712 -->
<g id="edge7" class="edge" data-name="MarketERC20-&gt;EIP712">

<path fill="none" stroke="black" d="M259,-73.29C277.78,-62.86 302.55,-49.09 322.46,-38.04" style=""/>
<polygon fill="black" stroke="black" points="324,-41.18 331.04,-33.27 320.6,-35.06 324,-41.18" style=""/>
</g>
</g>
</svg>