<?xml version="1.0" standalone="no"?>
<svg xmlns="http://www.w3.org/2000/svg" xmlns:xlink="http://www.w3.org/1999/xlink" width="812pt" height="856pt" viewBox="0.00 0.00 812.26 856.00">
<g id="graph0" class="graph" transform="translate(51.82487255885496,736.7049116996395) scale(0.8408964152537148)" data-name="G">

<polygon fill="#2e3e56" stroke="none" points="-4,4 -4,-852 808.26,-852 808.26,4 -4,4" style=""/>
<g id="clust1" class="cluster" data-name="clusterMarket">

<path fill="#445773" stroke="#445773" d="M20,-8C20,-8 647.85,-8 647.85,-8 653.85,-8 659.85,-14 659.85,-20 659.85,-20 659.85,-691 659.85,-691 659.85,-697 653.85,-703 647.85,-703 647.85,-703 20,-703 20,-703 14,-703 8,-697 8,-691 8,-691 8,-20 8,-20 8,-14 14,-8 20,-8" style=""/>
<text text-anchor="middle" x="333.93" y="-686.4" font-family="Times,serif" font-size="14.00" fill="#f0f0f0" style="">Market</text>
</g>
<g id="clust2" class="cluster" data-name="clusterIOracle">

<path fill="#3b4b63" stroke="#e8726d" stroke-dasharray="5,2" d="M715.06,-533C715.06,-533 761.06,-533 761.06,-533 767.06,-533 773.06,-539 773.06,-545 773.06,-545 773.06,-598 773.06,-598 773.06,-604 767.06,-610 761.06,-610 761.06,-610 715.06,-610 715.06,-610 709.06,-610 703.06,-604 703.06,-598 703.06,-598 703.06,-545 703.06,-545 703.06,-539 709.06,-533 715.06,-533" style=""/>
<text text-anchor="middle" x="738.06" y="-593.4" font-family="Times,serif" font-size="14.00" fill="#f0f0f0" style="">IOracle</text>
</g>
<g id="clust3" class="cluster" data-name="clusterYieldBox">

<path fill="#3b4b63" stroke="#e8726d" stroke-dasharray="5,2" d="M691.85,-143C691.85,-143 784.26,-143 784.26,-143 790.26,-143 796.26,-149 796.26,-155 796.26,-155 796.26,-208 796.26,-208 796.26,-214 790.26,-220 784.26,-220 784.26,-220 691.85,-220 691.85,-220 685.85,-220 679.85,-214 679.85,-208 679.85,-208 679.85,-155 679.85,-155 679.85,-149 685.85,-143 691.85,-143" style=""/>
<text text-anchor="middle" x="738.06" y="-203.4" font-family="Times,serif" font-size="14.00" fill="#f0f0f0" style="">YieldBox</text>
</g>
<g id="clust4" class="cluster" data-name="cluster_01">

<polygon fill="#2e3e56" stroke="black" points="95.1,-711 95.1,-840 539.03,-840 539.03,-711 95.1,-711" style=""/>
<text text-anchor="middle" x="317.07" y="-823.4" font-family="Times,serif" font-size="14.00" style="">Legend</text>
</g>
<!-- Market.notPaused -->
<g id="node1" class="node" pointer-events="visible" data-name="Market.notPaused">

<polygon fill="#edad56" stroke="#1bc6a6" stroke-width="3" points="222.94,-640.54 222.94,-655.46 190.82,-666 145.39,-666 113.27,-655.46 113.27,-640.54 145.39,-630 190.82,-630 222.94,-640.54" style=""/>
<polygon fill="none" stroke="#1bc6a6" stroke-width="3" points="226.93,-637.65 226.93,-658.35 191.46,-670 144.75,-670 109.27,-658.35 109.27,-637.65 144.75,-626 191.46,-626 226.93,-637.65" style=""/>
<text text-anchor="middle" x="168.1" y="-643.8" font-family="Times,serif" font-size="14.00" style="">notPaused</text>
</g>
<!-- Market.solvent -->
<g id="node2" class="node" pointer-events="visible" data-name="Market.solvent">

<polygon fill="#edad56" stroke="#1bc6a6" stroke-width="3" points="210.37,-578.54 210.37,-593.46 185.61,-604 150.6,-604 125.84,-593.46 125.84,-578.54 150.6,-568 185.61,-568 210.37,-578.54" style=""/>
<polygon fill="none" stroke="#1bc6a6" stroke-width="3" points="214.38,-575.9 214.38,-596.1 186.43,-608 149.78,-608 121.82,-596.1 121.82,-575.9 149.78,-564 186.43,-564 214.38,-575.9" style=""/>
<text text-anchor="middle" x="168.1" y="-581.8" font-family="Times,serif" font-size="14.00" style="">solvent</text>
</g>
<!-- Market.updateExchangeRate -->
<g id="node10" class="node" pointer-events="visible" data-name="Market.updateExchangeRate">

<ellipse fill="#edad56" stroke="#edad56" stroke-width="3" cx="504.03" cy="-559" rx="92.59" ry="18" style=""/>
<text text-anchor="middle" x="504.03" y="-554.8" font-family="Times,serif" font-size="14.00" style="">updateExchangeRate</text>
</g>
<!-- Market.solvent&#45;&gt;Market.updateExchangeRate -->
<g id="edge1" class="edge" data-name="Market.solvent-&gt;Market.updateExchangeRate">

<path fill="none" stroke="#1bc6a6" stroke-width="2" d="M215.89,-582.22C264.33,-578.3 341.5,-572.06 403.64,-567.04" style=""/>
<polygon fill="#1bc6a6" stroke="#1bc6a6" stroke-width="2" points="403.55,-570.55 413.24,-566.26 402.99,-563.58 403.55,-570.55" style=""/>
</g>
<!-- Market._accrue -->
<g id="node12" class="node" pointer-events="visible" data-name="Market._accrue">

<ellipse fill="#edad56" stroke="#edad56" stroke-width="3" cx="504.03" cy="-613" rx="41.11" ry="18" style=""/>
<text text-anchor="middle" x="504.03" y="-608.8" font-family="Times,serif" font-size="14.00" style="">_accrue</text>
</g>
<!-- Market.solvent&#45;&gt;Market._accrue -->
<g id="edge2" class="edge" data-name="Market.solvent-&gt;Market._accrue">

<path fill="none" stroke="#1bc6a6" stroke-width="2" d="M215.89,-589.78C277.26,-594.75 384.73,-603.43 449.35,-608.66" style=""/>
<polygon fill="#1bc6a6" stroke="#1bc6a6" stroke-width="2" points="448.8,-612.13 459.05,-609.44 449.37,-605.15 448.8,-612.13" style=""/>
</g>
<!-- Market._isSolvent -->
<g id="node15" class="node" pointer-events="visible" data-name="Market._isSolvent">

<ellipse fill="#edad56" stroke="#edad56" stroke-width="3" cx="504.03" cy="-472" rx="51.63" ry="18" style=""/>
<text text-anchor="middle" x="504.03" y="-467.8" font-family="Times,serif" font-size="14.00" style="">_isSolvent</text>
</g>
<!-- Market.solvent&#45;&gt;Market._isSolvent -->
<g id="edge3" class="edge" data-name="Market.solvent-&gt;Market._isSolvent">

<path fill="none" stroke="#1bc6a6" stroke-width="2" d="M215.67,-580.93C246.22,-576.53 286.58,-568.64 320.21,-555 337.8,-547.86 339.35,-540.74 356.21,-532 387.65,-515.7 424.57,-500.63 453.51,-489.67" style=""/>
<polygon fill="#1bc6a6" stroke="#1bc6a6" stroke-width="2" points="454.41,-493.07 462.55,-486.3 451.96,-486.52 454.41,-493.07" style=""/>
</g>
<!-- Market.onlyOnce -->
<g id="node3" class="node" pointer-events="visible" data-name="Market.onlyOnce">

<polygon fill="#edad56" stroke="#1bc6a6" stroke-width="3" points="220.76,-516.54 220.76,-531.46 189.92,-542 146.29,-542 115.45,-531.46 115.45,-516.54 146.29,-506 189.92,-506 220.76,-516.54" style=""/>
<polygon fill="none" stroke="#1bc6a6" stroke-width="3" points="224.77,-513.69 224.77,-534.31 190.58,-546 145.63,-546 111.44,-534.31 111.44,-513.69 145.63,-502 190.58,-502 224.77,-513.69" style=""/>
<text text-anchor="middle" x="168.1" y="-519.8" font-family="Times,serif" font-size="14.00" style="">onlyOnce</text>
</g>
<!-- Market.setBorrowOpeningFee -->
<g id="node4" class="node" pointer-events="visible" data-name="Market.setBorrowOpeningFee">

<ellipse fill="#ffbdb9" stroke="#ffbdb9" stroke-width="3" cx="168.1" cy="-466" rx="98.44" ry="18" style=""/>
<text text-anchor="middle" x="168.1" y="-461.8" font-family="Times,serif" font-size="14.00" style="">setBorrowOpeningFee</text>
</g>
<!-- Market.setBorrowCap -->
<g id="node5" class="node" pointer-events="visible" data-name="Market.setBorrowCap">

<ellipse fill="#ffbdb9" stroke="#ffbdb9" stroke-width="3" cx="168.1" cy="-412" rx="66.65" ry="18" style=""/>
<text text-anchor="middle" x="168.1" y="-407.8" font-family="Times,serif" font-size="14.00" style="">setBorrowCap</text>
</g>
<!-- Market.setMarketConfig -->
<g id="node6" class="node" pointer-events="visible" data-name="Market.setMarketConfig">

<ellipse fill="#ffbdb9" stroke="#ffbdb9" stroke-width="3" cx="168.1" cy="-358" rx="76.45" ry="18" style=""/>
<text text-anchor="middle" x="168.1" y="-353.8" font-family="Times,serif" font-size="14.00" style="">setMarketConfig</text>
</g>
<!-- Market.address -->
<g id="node20" class="node" pointer-events="visible" data-name="Market.address">

<ellipse fill="#edad56" stroke="#edad56" stroke-width="3" cx="504.03" cy="-358" rx="40" ry="18" style=""/>
<text text-anchor="middle" x="504.03" y="-353.8" font-family="Times,serif" font-size="14.00" style="">address</text>
</g>
<!-- Market.setMarketConfig&#45;&gt;Market.address -->
<g id="edge4" class="edge" data-name="Market.setMarketConfig-&gt;Market.address">

<path fill="none" stroke="#1bc6a6" stroke-width="2" d="M232.7,-347.13C297.13,-343.32 395.41,-343.65 454.03,-348.11" style=""/>
<polygon fill="#1bc6a6" stroke="#1bc6a6" stroke-width="2" points="453.7,-351.59 463.96,-348.97 454.3,-344.62 453.7,-351.59" style=""/>
</g>
<!-- Market.setMarketConfig&#45;&gt;Market.address -->
<g id="edge5" class="edge" data-name="Market.setMarketConfig-&gt;Market.address">

<path fill="none" stroke="#1bc6a6" stroke-width="2" d="M245.71,-358C308.15,-358 394.71,-358 449.8,-358" style=""/>
<polygon fill="#1bc6a6" stroke="#1bc6a6" stroke-width="2" points="449.72,-361.5 459.72,-358 449.72,-354.5 449.72,-361.5" style=""/>
</g>
<!-- Market.setMarketConfig&#45;&gt;Market.address -->
<g id="edge6" class="edge" data-name="Market.setMarketConfig-&gt;Market.address">

<path fill="none" stroke="#1bc6a6" stroke-width="2" d="M232.7,-368.87C297.13,-372.68 395.41,-372.35 454.03,-367.89" style=""/>
<polygon fill="#1bc6a6" stroke="#1bc6a6" stroke-width="2" points="454.3,-371.38 463.96,-367.03 453.7,-364.41 454.3,-371.38" style=""/>
</g>
<!-- Market.updatePause -->
<g id="node7" class="node" pointer-events="visible" data-name="Market.updatePause">

<ellipse fill="#ffbdb9" stroke="#ffbdb9" stroke-width="3" cx="168.1" cy="-304" rx="59.11" ry="18" style=""/>
<text text-anchor="middle" x="168.1" y="-299.8" font-family="Times,serif" font-size="14.00" style="">updatePause</text>
</g>
<!-- Market.computeClosingFactor -->
<g id="node8" class="node" pointer-events="visible" data-name="Market.computeClosingFactor">

<ellipse fill="#ff9797" stroke="#ff9797" stroke-width="3" cx="168.1" cy="-250" rx="99.02" ry="18" style=""/>
<text text-anchor="middle" x="168.1" y="-245.8" font-family="Times,serif" font-size="14.00" style="">computeClosingFactor</text>
</g>
<!-- Market.computeTVLInfo -->
<g id="node9" class="node" pointer-events="visible" data-name="Market.computeTVLInfo">

<ellipse fill="#ff9797" stroke="#ff9797" stroke-width="3" cx="168.1" cy="-142" rx="79.3" ry="18" style=""/>
<text text-anchor="middle" x="168.1" y="-137.8" font-family="Times,serif" font-size="14.00" style="">computeTVLInfo</text>
</g>
<!-- Market._computeMaxBorrowableAmount -->
<g id="node14" class="node" pointer-events="visible" data-name="Market._computeMaxBorrowableAmount">

<ellipse fill="#edad56" stroke="#edad56" stroke-width="3" cx="504.03" cy="-115" rx="144.12" ry="18" style=""/>
<text text-anchor="middle" x="504.03" y="-110.8" font-family="Times,serif" font-size="14.00" style="">_computeMaxBorrowableAmount</text>
</g>
<!-- Market.computeTVLInfo&#45;&gt;Market._computeMaxBorrowableAmount -->
<g id="edge7" class="edge" data-name="Market.computeTVLInfo-&gt;Market._computeMaxBorrowableAmount">

<path fill="none" stroke="#1bc6a6" stroke-width="2" d="M244.46,-135.91C280.46,-133 324.69,-129.42 366.32,-126.05" style=""/>
<polygon fill="#1bc6a6" stroke="#1bc6a6" stroke-width="2" points="366.44,-129.56 376.12,-125.26 365.88,-122.58 366.44,-129.56" style=""/>
</g>
<!-- Market._computeMaxAndMinLTVInAsset -->
<g id="node16" class="node" pointer-events="visible" data-name="Market._computeMaxAndMinLTVInAsset">

<ellipse fill="#edad56" stroke="#edad56" stroke-width="3" cx="504.03" cy="-169" rx="147.65" ry="18" style=""/>
<text text-anchor="middle" x="504.03" y="-164.8" font-family="Times,serif" font-size="14.00" style="">_computeMaxAndMinLTVInAsset</text>
</g>
<!-- Market.computeTVLInfo&#45;&gt;Market._computeMaxAndMinLTVInAsset -->
<g id="edge8" class="edge" data-name="Market.computeTVLInfo-&gt;Market._computeMaxAndMinLTVInAsset">

<path fill="none" stroke="#1bc6a6" stroke-width="2" d="M244.46,-148.09C279.86,-150.96 323.22,-154.46 364.24,-157.78" style=""/>
<polygon fill="#1bc6a6" stroke="#1bc6a6" stroke-width="2" points="363.9,-161.26 374.15,-158.58 364.47,-154.28 363.9,-161.26" style=""/>
</g>
<!-- IOracle.get -->
<g id="node21" class="node" pointer-events="visible" data-name="IOracle.get">

<ellipse fill="#edad56" stroke="#edad56" stroke-width="3" cx="738.06" cy="-559" rx="27" ry="18" style=""/>
<text text-anchor="middle" x="738.06" y="-554.8" font-family="Times,serif" font-size="14.00" style="">get</text>
</g>
<!-- Market.updateExchangeRate&#45;&gt;IOracle.get -->
<g id="edge9" class="edge" data-name="Market.updateExchangeRate-&gt;IOracle.get">

<path fill="none" stroke="white" stroke-width="2" d="M598.07,-559C632.37,-559 669.45,-559 696.69,-559" style=""/>
<polygon fill="white" stroke="white" stroke-width="2" points="696.56,-562.5 706.56,-559 696.56,-555.5 696.56,-562.5" style=""/>
</g>
<!-- Market.computeLiquidatorReward -->
<g id="node11" class="node" pointer-events="visible" data-name="Market.computeLiquidatorReward">

<ellipse fill="#ff9797" stroke="#ff9797" stroke-width="3" cx="168.1" cy="-196" rx="115.17" ry="18" style=""/>
<text text-anchor="middle" x="168.1" y="-191.8" font-family="Times,serif" font-size="14.00" style="">computeLiquidatorReward</text>
</g>
<!-- Market.computeLiquidatorReward&#45;&gt;Market._computeMaxAndMinLTVInAsset -->
<g id="edge10" class="edge" data-name="Market.computeLiquidatorReward-&gt;Market._computeMaxAndMinLTVInAsset">

<path fill="none" stroke="#1bc6a6" stroke-width="2" d="M272.93,-187.61C301.74,-185.28 333.5,-182.71 363.98,-180.24" style=""/>
<polygon fill="#1bc6a6" stroke="#1bc6a6" stroke-width="2" points="364.25,-183.73 373.93,-179.44 363.68,-176.76 364.25,-183.73" style=""/>
</g>
<!-- Market._getCallerReward -->
<g id="node17" class="node" pointer-events="visible" data-name="Market._getCallerReward">

<ellipse fill="#edad56" stroke="#edad56" stroke-width="3" cx="504.03" cy="-223" rx="81.08" ry="18" style=""/>
<text text-anchor="middle" x="504.03" y="-218.8" font-family="Times,serif" font-size="14.00" style="">_getCallerReward</text>
</g>
<!-- Market.computeLiquidatorReward&#45;&gt;Market._getCallerReward -->
<g id="edge11" class="edge" data-name="Market.computeLiquidatorReward-&gt;Market._getCallerReward">

<path fill="none" stroke="#1bc6a6" stroke-width="2" d="M272.93,-204.39C317.88,-208.03 369.99,-212.24 413.24,-215.74" style=""/>
<polygon fill="#1bc6a6" stroke="#1bc6a6" stroke-width="2" points="412.8,-219.22 423.05,-216.53 413.36,-212.24 412.8,-219.22" style=""/>
</g>
<!-- Market._getRevertMsg -->
<g id="node13" class="node" pointer-events="visible" data-name="Market._getRevertMsg">

<ellipse fill="#f2c383" stroke="#f2c383" stroke-width="3" cx="168.1" cy="-88" rx="70.65" ry="18" style=""/>
<text text-anchor="middle" x="168.1" y="-83.8" font-family="Times,serif" font-size="14.00" style="">_getRevertMsg</text>
</g>
<!-- YieldBox.toAmount -->
<g id="node22" class="node" pointer-events="visible" data-name="YieldBox.toAmount">

<ellipse fill="#edad56" stroke="#edad56" stroke-width="3" cx="738.06" cy="-169" rx="50.4" ry="18" style=""/>
<text text-anchor="middle" x="738.06" y="-164.8" font-family="Times,serif" font-size="14.00" style="">toAmount</text>
</g>
<!-- Market._computeMaxBorrowableAmount&#45;&gt;YieldBox.toAmount -->
<g id="edge12" class="edge" data-name="Market._computeMaxBorrowableAmount-&gt;YieldBox.toAmount">

<path fill="none" stroke="white" stroke-width="2" d="M601.77,-129.36C621.13,-132.93 641.24,-137.16 659.85,-142 669.61,-144.54 679.9,-147.75 689.67,-151.06" style=""/>
<polygon fill="white" stroke="white" stroke-width="2" points="688.23,-154.26 698.83,-154.26 690.55,-147.66 688.23,-154.26" style=""/>
</g>
<!-- Market._isSolvent&#45;&gt;YieldBox.toAmount -->
<g id="edge13" class="edge" data-name="Market._isSolvent-&gt;YieldBox.toAmount">

<path fill="none" stroke="white" stroke-width="2" d="M543.58,-459.24C578.45,-445.87 628.93,-421.64 659.85,-385 705.83,-330.53 725.25,-246.64 732.78,-201.1" style=""/>
<polygon fill="white" stroke="white" stroke-width="2" points="736.23,-201.68 734.29,-191.26 729.31,-200.61 736.23,-201.68" style=""/>
</g>
<!-- Market._computeMaxAndMinLTVInAsset&#45;&gt;YieldBox.toAmount -->
<g id="edge14" class="edge" data-name="Market._computeMaxAndMinLTVInAsset-&gt;YieldBox.toAmount">

<path fill="none" stroke="white" stroke-width="2" d="M652.96,-169C659.94,-169 666.76,-169 673.3,-169" style=""/>
<polygon fill="white" stroke="white" stroke-width="2" points="673.26,-172.5 683.26,-169 673.26,-165.5 673.26,-172.5" style=""/>
</g>
<!-- Market._computeAllowanceAmountInAsset -->
<g id="node18" class="node" pointer-events="visible" data-name="Market._computeAllowanceAmountInAsset">

<ellipse fill="#f2c383" stroke="#f2c383" stroke-width="3" cx="168.1" cy="-34" rx="152.21" ry="18" style=""/>
<text text-anchor="middle" x="168.1" y="-29.8" font-family="Times,serif" font-size="14.00" style="">_computeAllowanceAmountInAsset</text>
</g>
<!-- Market._computeAllowanceAmountInAsset&#45;&gt;Market._computeMaxBorrowableAmount -->
<g id="edge15" class="edge" data-name="Market._computeAllowanceAmountInAsset-&gt;Market._computeMaxBorrowableAmount">

<path fill="none" stroke="#1bc6a6" stroke-width="2" d="M263.74,-49.25C282.53,-52.75 302.05,-56.71 320.21,-61 358.93,-70.15 401.61,-82.62 435.99,-93.27" style=""/>
<polygon fill="#1bc6a6" stroke="#1bc6a6" stroke-width="2" points="434.78,-96.55 445.36,-96.2 436.86,-89.87 434.78,-96.55" style=""/>
</g>
<!-- Market._getRatio -->
<g id="node19" class="node" pointer-events="visible" data-name="Market._getRatio">

<ellipse fill="#edad56" stroke="#edad56" stroke-width="3" cx="504.03" cy="-34" rx="48.67" ry="18" style=""/>
<text text-anchor="middle" x="504.03" y="-29.8" font-family="Times,serif" font-size="14.00" style="">_getRatio</text>
</g>
<!-- Market._computeAllowanceAmountInAsset&#45;&gt;Market._getRatio -->
<g id="edge16" class="edge" data-name="Market._computeAllowanceAmountInAsset-&gt;Market._getRatio">

<path fill="none" stroke="#1bc6a6" stroke-width="2" d="M321.41,-34C363.63,-34 407.1,-34 440.93,-34" style=""/>
<polygon fill="#1bc6a6" stroke="#1bc6a6" stroke-width="2" points="440.84,-37.5 450.84,-34 440.84,-30.5 440.84,-37.5" style=""/>
</g>
<!-- key -->
<g id="node23" class="node" pointer-events="visible" data-name="key">

<polygon fill="#edad56" stroke="none" stroke-width="3" points="233.1,-807 103.1,-807 103.1,-719 233.1,-719 233.1,-807" style=""/>
<text text-anchor="start" x="152.74" y="-788.4" font-family="Times,serif" font-size="14.00" style="">Internal Call</text>
<text text-anchor="start" x="148.85" y="-768.4" font-family="Times,serif" font-size="14.00" style="">External Call</text>
<text text-anchor="start" x="126.31" y="-748.4" font-family="Times,serif" font-size="14.00" style="">Defined Contract</text>
<text text-anchor="start" x="112.71" y="-728.4" font-family="Times,serif" font-size="14.00" style="">Undefined Contract</text>
</g>
<!-- key2 -->
<g id="node24" class="node" pointer-events="visible" data-name="key2">

<polygon fill="#edad56" stroke="none" stroke-width="3" points="531.03,-807 477.03,-807 477.03,-719 531.03,-719 531.03,-807" style=""/>
<text text-anchor="start" x="494.03" y="-788.4" font-family="Times,serif" font-size="14.00" style="">   </text>
<text text-anchor="start" x="494.03" y="-768.4" font-family="Times,serif" font-size="14.00" style="">   </text>
<polygon fill="#445773" stroke="none" points="492.03,-743 492.03,-763 517.03,-763 517.03,-743 492.03,-743" style=""/>
<text text-anchor="start" x="494.03" y="-748.4" font-family="Times,serif" font-size="14.00" style="">   </text>
<polygon fill="none" stroke="#e8726d" points="494.03,-725 494.03,-741 515.03,-741 515.03,-725 494.03,-725" style=""/>
</g>
<!-- key&#45;&gt;key2 -->
<g id="edge17" class="edge" data-name="key-&gt;key2">

<path fill="none" stroke="#1bc6a6" stroke-width="2" d="M226.1,-793C339.48,-793 370.98,-793 478.28,-793" style=""/>
<polygon fill="#1bc6a6" stroke="#1bc6a6" stroke-width="2" points="478,-796.5 488,-793 478,-789.5 478,-796.5" style=""/>
</g>
<!-- key&#45;&gt;key2 -->
<g id="edge18" class="edge" data-name="key-&gt;key2">

<path fill="none" stroke="white" stroke-width="2" d="M226.1,-773C339.48,-773 370.98,-773 478.28,-773" style=""/>
<polygon fill="white" stroke="white" stroke-width="2" points="478,-776.5 488,-773 478,-769.5 478,-776.5" style=""/>
</g>
</g>
</svg>